<svg xmlns="http://www.w3.org/2000/svg" viewBox="0 0 1121.22 950.56"><title>Asset 2</title><g id="Layer_2" data-name="Layer 2"><g id="Layer_1-2" data-name="Layer 1"><rect x="705.66" y="852.48" width="372.48" height="95.59" rx="47.79" style="fill:#75b5fd;stroke:#75b5fd;stroke-linecap:round;stroke-linejoin:round;stroke-width:5px"/><path d="M265,778.25a24.89,24.89,0,0,1,7-6.64,19.35,19.35,0,0,1,7.84-2.83c0-4.83,0-9.64-.71-13.19-5.9-29.34-10.13-41.85-19.17-55-1.52-1.89-3-3.8-4.53-5.7a17.72,17.72,0,0,1-5.09-4.12c-9.09-10.83-19.52-20.37-28.18-31.59a401.22,401.22,0,0,1-25.66-37.9,21.84,21.84,0,0,1-2.83-7.54,42.87,42.87,0,0,1-4.43-11.46,25.89,25.89,0,0,1-3.18-6.38c-.31-.94-.63-1.87-1-2.79a42.54,42.54,0,0,1-4.3-10.8c-1.38-3.33-2.75-6.67-3.95-10.08-1.31-3.69-2.52-7.39-3.53-11.18-.45-1.7-.87-3.42-1.34-5.11-.35-1.22-3.07-8.36-.59-2.71a31.88,31.88,0,0,1-2.53-8.95H153.2a33.12,33.12,0,0,0-33.12,33.12h0v.3a24.51,24.51,0,0,1-24.39,25H94.27A91.77,91.77,0,0,0,2.5,694.46h0a91.77,91.77,0,0,0,91.77,91.77H255.08A24.74,24.74,0,0,1,265,778.25Z" style="fill:#75b5fd;stroke:#75b5fd;stroke-linecap:round;stroke-linejoin:round;stroke-width:5px"/><path d="M879.51,602.69H879a24.51,24.51,0,0,1-24.39-25v-.3h0a33.13,33.13,0,0,0-24.54-32c-.19.38-.38.74-.59,1.09A20.79,20.79,0,0,1,826,551a24.05,24.05,0,0,1-18.28,9,23.14,23.14,0,0,1-5.71-.72,29.75,29.75,0,0,1-7.77-1.39,33.36,33.36,0,0,1-13.12-8.08,52.48,52.48,0,0,1-9.14-5.54H303.66a43.12,43.12,0,0,1,3.27,4.6c16.37,26.62,38.34,49.2,53.63,76.42.92,1.64,1.89,3.26,2.87,4.87,8.42,13.64,14.3,29.31,20.71,43.94,7.47,17,13.79,34.18,17.09,52.53a261.43,261.43,0,0,1,4.36,57.14c0,.82-.1,1.62-.17,2.41H879.51a91.76,91.76,0,0,0,91.77-91.77h0A91.77,91.77,0,0,0,879.51,602.69Z" style="fill:#75b5fd;stroke:#75b5fd;stroke-linecap:round;stroke-linejoin:round;stroke-width:5px"/><path d="M377.33,6.75a47.8,47.8,0,0,0-47.79,47.8h0a49.78,49.78,0,0,1-49.78,49.78H188.58a19.06,19.06,0,0,0-19.07,19.06h0a19.07,19.07,0,0,0,19.07,19.07H292.09a22.9,22.9,0,0,1,10.16-6.12c15.45-4.27,31.41-6.42,46.76-11a149.6,149.6,0,0,1,27.08-5.88c3.92-.45,7.86-.71,11.79-1,1.66-.14,3.32-.33,5-.47.91-.15,1.83-.3,2.73-.48a27.87,27.87,0,0,1,12,.28c7.25-1.4,12.6-2.25,14.83-2.25,1.47,0,5.13.12,9.09.28.65-.06,1.31-.1,2-.1a23.8,23.8,0,0,1,4,.35c3.69.17,6.8.34,7.62.42a65.69,65.69,0,0,1,7.92-5.17,24.69,24.69,0,0,1,8.67-7.63c.81-.93,1.63-1.82,2.48-2.67a64.37,64.37,0,0,1,13.88-10.45,70,70,0,0,1,16.15-8.21,70.12,70.12,0,0,1,24.16-9.2c.84-.38,1.68-.76,2.53-1.12A48.06,48.06,0,0,1,537.34,68c1.86-.12,3.72-.06,5.58-.07,1.46,0,7-.55,1.1.36a32.53,32.53,0,0,1,9.38-.13,74.37,74.37,0,0,1,3.4-6.73s0-.09,0-.14c2.7-10.26,9.23-18.8,17.09-25.92a62,62,0,0,1,7.42-8.29,50.19,50.19,0,0,1,9.57-6.86,25.14,25.14,0,0,1,8.56-6.41,23.44,23.44,0,0,1,8.17-2.67l.28-.12a23.23,23.23,0,0,1,4.26-1.65l1.56-.21a23.64,23.64,0,0,1,5.43-2.38l.09,0Z" style="fill:#75b5fd;stroke:#75b5fd;stroke-linecap:round;stroke-linejoin:round;stroke-width:5px"/><rect x="113.83" y="164.31" width="109.62" height="27.17" rx="13.59" style="fill:#75b5fd;stroke:#75b5fd;stroke-linecap:round;stroke-linejoin:round;stroke-width:5px"/><path d="M754.7,400.55c2.21-4.19,4.37-8.41,6.74-12.53a3.28,3.28,0,0,1,.2-.31c.26-.52.52-1,.8-1.57-4.49-1.33-11.1-.69-20.31,6.09-13,9.55-4.66,14.83,3.08,17.41a4,4,0,0,1,2.26-2.8A21.76,21.76,0,0,0,754.7,400.55Z" style="fill:#75b5fd;stroke:#75b5fd;stroke-linecap:round;stroke-linejoin:round;stroke-width:5px"/><path d="M708.27,196.33l5.19,1.25a22.32,22.32,0,0,0,11.64-.33h0a2.7,2.7,0,0,1,2.41,4.43L722.08,208l-12.66,6.85s2.9-7-3.22-14.65A2.38,2.38,0,0,1,708.27,196.33Z" style="fill:#75b5fd;stroke:#75b5fd;stroke-linecap:round;stroke-linejoin:round;stroke-width:5px"/><path d="M438,126.91A38.25,38.25,0,0,1,449.11,116c-4.62-.3-4.51,1.56,0,0A410.77,410.77,0,0,0,292,145.32c-22,8-41,21-56,41-9,13-17,24-24,37s-12,27-16,41a243.67,243.67,0,0,0-9,76c1,19,1,37,5,56,1,10,4,19,9.78,27" style="fill:none;stroke:#0085ff;stroke-linecap:round;stroke-linejoin:round;stroke-width:5px"/><path d="M511.49,432.92C481,388.32,458,338.32,440.4,286.21" style="fill:none;stroke:#0085ff;stroke-linecap:round;stroke-linejoin:round;stroke-width:5px"/><path d="M555.25,67.52C515.58,69.32,476,84.32,449.55,116" style="fill:none;stroke:#0085ff;stroke-linecap:round;stroke-linejoin:round;stroke-width:5px"/><path d="M701.46,217.69c-6.5,24.62-23.53,44.09-43.13,59.64A195.47,195.47,0,0,1,642,289" style="fill:none;stroke:#0085ff;stroke-linecap:round;stroke-linejoin:round;stroke-width:5px"/><path d="M551.08,407.76c-12.12-43.44-5.12-88.44,6.25-130" style="fill:none;stroke:#0085ff;stroke-linecap:round;stroke-linejoin:round;stroke-width:5px"/><ellipse cx="926.57" cy="308.77" rx="24.78" ry="100.09" transform="translate(135.43 881.46) rotate(-54.33)" style="fill:#0085ff;stroke:#0085ff;stroke-linecap:round;stroke-linejoin:round;stroke-width:5px"/><ellipse cx="966.5" cy="236.46" rx="25.9" ry="104.61" transform="translate(538.22 1134.58) rotate(-78.25)" style="fill:none;stroke:#0085ff;stroke-linecap:round;stroke-linejoin:round;stroke-width:5px"/><path d="M965.58,411.32c-15.35-15.35-48.57-2-77.53,26.93s-42.35,62.09-27,77.44" style="fill:#0085ff;stroke:#0085ff;stroke-linecap:round;stroke-linejoin:round;stroke-width:5px"/><path d="M873,208c20,15.35,44,22.35,68,29.35,32,9,65,14,98,13,7.81-.71,17.31-.23,24.14-3.94,0,0-53.33-25.13-83.51-33.58-22-6.15-74.43-9.46-74.43-9.46Z" style="fill:#0085ff;stroke:#0085ff;stroke-linecap:round;stroke-linejoin:round;stroke-width:5px;opacity:0.62"/><path d="M866.08,195.65c2-5.6,7.88-8.14,13.21-9.41a110.12,110.12,0,0,1,24-2.79A312.69,312.69,0,0,1,951,186.91c29.81,4.19,60.28,11.61,87.83,24A121.67,121.67,0,0,1,1060.43,223c4.09,2.95,11.19,7.42,10.57,13.3" style="fill:none;stroke:#0085ff;stroke-linecap:round;stroke-linejoin:round;stroke-width:5px"/><path d="M873,188.46l2.39-7c1.89-5.59,7.52-8.14,12.62-9.4a100.75,100.75,0,0,1,22.93-2.8,286.82,286.82,0,0,1,45.6,3.46c28.48,4.19,57.58,11.61,83.9,24A115.92,115.92,0,0,1,1061,208.76a28,28,0,0,1,3,2.73c7,6.15,5.42,19.38,5.42,19.38" style="fill:none;stroke:#0085ff;stroke-linecap:round;stroke-linejoin:round;stroke-width:5px"/><path d="M845.25,250.41S780.34,366.26,718,459.19c-8.27,10.4,6.09,39.72,32.31,65.94,26.92,26.92,57,41.21,66.64,31.69l0-.05c83.11-74.94,190.89-189.63,190.89-189.63" style="fill:none;stroke:#0085ff;stroke-linecap:round;stroke-linejoin:round;stroke-width:5px"/><line x1="1068.92" y1="257.76" x2="1071" y2="236.26" style="fill:none;stroke:#0085ff;stroke-miterlimit:10;stroke-width:5px"/><line x1="864.08" y1="215.16" x2="866.08" y2="195.65" style="fill:none;stroke:#0085ff;stroke-linecap:round;stroke-linejoin:round;stroke-width:5px"/><path d="M279.06,441.58c11.23,18.26,14.75,41,11.23,62a89,89,0,0,1-6,20.63" style="fill:none;stroke:#0085ff;stroke-linecap:round;stroke-linejoin:round;stroke-width:5px"/><path d="M261.74,423a54.1,54.1,0,0,1,6.65,5.33" style="fill:none;stroke:#0085ff;stroke-linecap:round;stroke-linejoin:round;stroke-width:5px"/><path d="M168.64,479.7c2-26.5,19-52.47,44.34-61.88a56.92,56.92,0,0,1,22.08-3.55" style="fill:none;stroke:#0085ff;stroke-linecap:round;stroke-linejoin:round;stroke-width:5px"/><path d="M281.27,794.72c1.22-15.18,2.87-61-27.52-102.6-12.85-17.58-102.3-96-84.84-215.23" style="fill:none;stroke:#0085ff;stroke-linecap:round;stroke-linejoin:round;stroke-width:5px"/><path d="M278.68,522c52,48.3,99.28,117.3,118.28,186.3,14,52,13,108-22,153a159.87,159.87,0,0,1-26,26c-14,9-28,15-44,17-27,2-54-12-65-37-1-2-2-5-3-7-6-15-5-32,1-47a48.75,48.75,0,0,0,3-7c8-16,22-30,39.26-37.35" style="fill:none;stroke:#0085ff;stroke-linecap:round;stroke-linejoin:round;stroke-width:5px"/><path d="M319.15,420.11c5.93-.44,19.53,3.15,30.71.34,23-5.79,25.25-6.25,42.14-10.14,19.75-4.54,36.46-.46,45.34,1.71,31.3,7.66,38.4,24.21,63.3,22.24,8.07-.63,12.43-2.77,18.82,0,11.71,5.09,19.88,22.17,16.25,35.08-5.4,19.18-36.93,29.18-59,24-11.42-2.71-15.81-8.41-30.8-10.27a73.34,73.34,0,0,0-29.08,2.57c-15.33,4-64.45,4-125.22-1.35" style="fill:none;stroke:#0085ff;stroke-linecap:round;stroke-linejoin:round;stroke-width:5px"/><path d="M531.78,429.25c7.23-9.73,18.16-15.67,28.34-14.18,19.13,2.81,33,28.78,24.09,43.23-5.71,9.33-33.08,15.26-48.5,11" style="fill:none;stroke:#0085ff;stroke-linecap:round;stroke-linejoin:round;stroke-width:5px"/><line x1="951.94" y1="470.72" x2="976.94" y2="470.72" style="fill:none;stroke:#0085ff;stroke-linecap:round;stroke-linejoin:round;stroke-width:5px"/><line x1="907.01" y1="470.66" x2="936.1" y2="470.72" style="fill:none;stroke:#0085ff;stroke-linecap:round;stroke-linejoin:round;stroke-width:5px"/><path d="M546,470.35c56.23,0,113.23,0,169.71,0" style="fill:none;stroke:#0085ff;stroke-linecap:round;stroke-linejoin:round;stroke-width:5px"/><path d="M15,471.32c52,0,103-2,154.55-1.05" style="fill:none;stroke:#0085ff;stroke-linecap:round;stroke-linejoin:round;stroke-width:5px"/><path d="M167.12,544.33H73.05" style="fill:none;stroke:#0085ff;stroke-linecap:round;stroke-linejoin:round;stroke-width:5px"/><path d="M772.9,544.36c-156.94,0-312.94,0-470.09,0" style="fill:none;stroke:#0085ff;stroke-linecap:round;stroke-linejoin:round;stroke-width:5px"/><path d="M926.57,544.41c-31.61-.09-62.61-.09-94.19-.07" style="fill:none;stroke:#0085ff;stroke-linecap:round;stroke-linejoin:round;stroke-width:5px"/><path d="M546.34,333.54C557,343.85,572.66,348.86,587,350.63c9.12,1.13,18.28,1.15,27.35,2.78a133.38,133.38,0,0,1,28.48,8.72,159.59,159.59,0,0,1,37.17,22c6.24,5,11.2,11,17.18,16.22a83.38,83.38,0,0,0,46.39,19.77" style="fill:none;stroke:#0085ff;stroke-linecap:round;stroke-linejoin:round;stroke-width:5px"/><path d="M645,287.38c30.35,14.36,56,39.94,84,59.94,15,10,28,19,44.92,24.32" style="fill:none;stroke:#0085ff;stroke-linecap:round;stroke-linejoin:round;stroke-width:5px"/><path d="M743.56,51.68c15.24,7.7,31.63,15.15,48.46,18.4,11.55,2.23,19.93,10,26.55,19.36,2.69,3.83,6.65,9,2.33,13.27-3.14,3.09-9.21,4.69-13.26,6.14-13.8,4.92-29.35,7.19-43.49,2.34" style="fill:none;stroke:#0085ff;stroke-linecap:round;stroke-linejoin:round;stroke-width:5px"/><path d="M1049.29,364.79a131.86,131.86,0,0,0-36.75-20.41h.06s-130-57-149.57-63.75c40.86,34.09,21.08,21,56,45.54,31.29,22,61.54,36.81,79.9,40.19l.27.05a139.67,139.67,0,0,1,22.06,18.05c16.58,16.57,27.56,35.35,31.54,51.71,3.66,15,19.67,23.92,34.23,18.7a14.86,14.86,0,0,0,7-4.67C1103,438.26,1083.55,391.37,1049.29,364.79Z" style="fill:#75b5fd;stroke:#75b5fd;stroke-linecap:round;stroke-linejoin:round;stroke-width:5px"/><path d="M555.25,67.52C567.45,29,599,9.32,639,3.32c26-3,52,2,75,18a30.39,30.39,0,0,0,7,5c35,28,54.42,79.07,35,120-4.5,9.47-14.19,11-21,21.92a18.66,18.66,0,0,0-2.59,12.42c0,.13,0,.21,0,.25a26.88,26.88,0,0,1-7.62,24.6c-6.8,6.76-17.94,16.25-32,10.39,0,0-14.5-5.59-19.83-10.31" style="fill:none;stroke:#0085ff;stroke-linecap:round;stroke-linejoin:round;stroke-width:5px"/><path d="M660.62,63.77s6.06-1.52,19,7.58,20.24,44,20.24,44c-17.68-6.06-48.29,4.55-48.29,4.55l-5.31-9.1" style="fill:none;stroke:#0085ff;stroke-linecap:round;stroke-linejoin:round;stroke-width:5px"/><path d="M568.21,280.6c-20.59-7.22-38.53-22.1-52.43-38.63" style="fill:none;stroke:#0085ff;stroke-linecap:round;stroke-linejoin:round;stroke-width:5px"/><path d="M1106.52,438.41s2.24,11.71-2.65,19.69c-1.63,2.66-.73,4.37,1.19,5.46,5.9,3.33,12.77-2.66,10.62-9.09A54.44,54.44,0,0,0,1106.52,438.41Z" style="fill:#75b5fd;stroke:#75b5fd;stroke-linecap:round;stroke-linejoin:round;stroke-width:5px"/><path d="M1101.18,407.43a1.25,1.25,0,0,1,1.84-1.17c2.56,1.25,8.39,4.39,12.48,4.18,5.83-.29,3.65,13-5.62,9.26C1104.1,417.37,1101.64,410.64,1101.18,407.43Z" style="fill:#75b5fd;stroke:#75b5fd;stroke-linecap:round;stroke-linejoin:round;stroke-width:5px"/></g></g></svg>